<svg width="70" height="70" viewBox="0 0 70 70" fill="none" xmlns="http://www.w3.org/2000/svg">
<circle cx="35" cy="35" r="33.5" stroke="#BED200" stroke-width="3"/>
<path d="M52 44.843C52 45.2776 51.9195 45.8489 51.7585 46.5569C51.5975 47.2489 51.4285 47.7961 51.2514 48.1984C50.9134 49.0031 49.9313 49.856 48.3054 50.7572C46.7921 51.5779 45.295 51.9883 43.8139 51.9883C43.3793 51.9883 42.9527 51.9642 42.5341 51.9159C42.1316 51.8515 41.6728 51.7469 41.1577 51.6021C40.6425 51.4572 40.2562 51.3446 39.9986 51.2641C39.7571 51.1676 39.3144 50.9986 38.6705 50.7572C38.0265 50.5158 37.6321 50.371 37.4872 50.3227C35.9096 49.7594 34.5009 49.0916 33.2614 48.3191C31.2008 47.0478 29.0677 45.3178 26.8622 43.1291C24.6728 40.9244 22.9422 38.7921 21.6705 36.7322C20.8977 35.493 20.2296 34.0849 19.6662 32.5078C19.6179 32.363 19.473 31.9687 19.2315 31.325C18.9901 30.6812 18.821 30.2387 18.7244 29.9973C18.6439 29.7398 18.5313 29.3536 18.3864 28.8386C18.2415 28.3236 18.1368 27.865 18.0724 27.4627C18.0241 27.0442 18 26.6178 18 26.1833C18 24.7027 18.4105 23.2061 19.2315 21.6933C20.133 20.0679 20.9863 19.0863 21.7912 18.7483C22.1937 18.5713 22.741 18.4023 23.4332 18.2414C24.1416 18.0805 24.7131 18 25.1477 18C25.3731 18 25.5421 18.0241 25.6548 18.0724C25.9446 18.169 26.3712 18.7805 26.9347 19.907C27.1117 20.2128 27.3532 20.6473 27.6591 21.2105C27.965 21.7738 28.2467 22.2888 28.5043 22.7555C28.7618 23.2061 29.0114 23.6325 29.2528 24.0349C29.3011 24.0992 29.438 24.3004 29.6634 24.6383C29.9048 24.9763 30.0819 25.266 30.1946 25.5074C30.3073 25.7327 30.3636 25.958 30.3636 26.1833C30.3636 26.5051 30.1302 26.9074 29.6634 27.3902C29.2126 27.873 28.7135 28.3156 28.1662 28.7179C27.6349 29.1202 27.1359 29.5467 26.669 29.9973C26.2183 30.4479 25.9929 30.818 25.9929 31.1077C25.9929 31.2525 26.0331 31.4376 26.1136 31.6629C26.1941 31.8721 26.2585 32.0331 26.3068 32.1457C26.3712 32.2584 26.4839 32.4515 26.6449 32.7251C26.822 32.9986 26.9186 33.1515 26.9347 33.1837C28.1581 35.3884 29.5587 37.2794 31.1364 38.8565C32.714 40.4336 34.6056 41.8337 36.8111 43.0567C36.8433 43.0728 36.9962 43.1694 37.2699 43.3464C37.5436 43.5073 37.7367 43.62 37.8494 43.6844C37.9621 43.7326 38.1231 43.797 38.3324 43.8775C38.5578 43.9579 38.7429 43.9982 38.8878 43.9982C39.1776 43.9982 39.5478 43.7729 39.9986 43.3223C40.4493 42.8556 40.876 42.3567 41.2784 41.8256C41.6809 41.2785 42.1236 40.7796 42.6065 40.329C43.0895 39.8623 43.492 39.6289 43.8139 39.6289C44.0393 39.6289 44.2647 39.6853 44.4901 39.7979C44.7315 39.9106 45.0213 40.0876 45.3594 40.329C45.6974 40.5543 45.8987 40.6911 45.9631 40.7393C46.3655 40.9807 46.7921 41.2302 47.2429 41.4877C47.7098 41.7452 48.2249 42.0268 48.7884 42.3325C49.3518 42.6383 49.7865 42.8797 50.0923 43.0567C51.2192 43.62 51.831 44.0464 51.9276 44.3361C51.9759 44.4488 52 44.6177 52 44.843Z" fill="#BED200"/>
</svg>
