<svg width="71" height="70" viewBox="0 0 71 70" fill="none" xmlns="http://www.w3.org/2000/svg">
<path d="M68.5241 35C68.5241 53.5011 53.5207 68.5 35.012 68.5C16.5034 68.5 1.5 53.5011 1.5 35C1.5 16.4989 16.5034 1.5 35.012 1.5C53.5207 1.5 68.5241 16.4989 68.5241 35Z" stroke="#BED200" stroke-width="3"/>
<path d="M24.0341 40.1049C24.6155 39.5176 24.9062 38.8116 24.9062 37.9869C24.9062 37.1622 24.6155 36.4562 24.0341 35.8689C23.4527 35.2816 22.7538 34.9879 21.9374 34.9879C21.121 34.9879 20.4221 35.2816 19.8408 35.8689C19.2594 36.4562 18.9687 37.1622 18.9687 37.9869C18.9687 38.8116 19.2594 39.5176 19.8408 40.1049C20.4221 40.6922 21.121 40.9859 21.9374 40.9859C22.7538 40.9859 23.4527 40.6922 24.0341 40.1049ZM25.5742 31.9889H44.4257L42.7744 25.2975C42.7496 25.1975 42.663 25.0913 42.5146 24.9789C42.3661 24.8539 42.2363 24.7914 42.1249 24.7914H27.8749C27.7636 24.7914 27.6337 24.8539 27.4853 24.9789C27.3369 25.0913 27.2503 25.1975 27.2255 25.2975L25.5742 31.9889ZM50.1591 40.1049C50.7405 39.5176 51.0312 38.8116 51.0312 37.9869C51.0312 37.1622 50.7405 36.4562 50.1591 35.8689C49.5777 35.2816 48.8788 34.9879 48.0624 34.9879C47.246 34.9879 46.5471 35.2816 45.9658 35.8689C45.3844 36.4562 45.0937 37.1622 45.0937 37.9869C45.0937 38.8116 45.3844 39.5176 45.9658 40.1049C46.5471 40.6922 47.246 40.9859 48.0624 40.9859C48.8788 40.9859 49.5777 40.6922 50.1591 40.1049ZM53.9999 36.1875V43.385C53.9999 43.56 53.9443 43.7037 53.8329 43.8161C53.7216 43.9286 53.5794 43.9848 53.4062 43.9848H51.6249V46.384C51.6249 47.3836 51.2786 48.2334 50.5859 48.9331C49.8932 49.6329 49.052 49.9828 48.0624 49.9828C47.0729 49.9828 46.2317 49.6329 45.539 48.9331C44.8463 48.2334 44.4999 47.3836 44.4999 46.384V43.9848H25.4999V46.384C25.4999 47.3836 25.1536 48.2334 24.4609 48.9331C23.7682 49.6329 22.927 49.9828 21.9374 49.9828C20.9479 49.9828 20.1067 49.6329 19.414 48.9331C18.7213 48.2334 18.3749 47.3836 18.3749 46.384V43.9848H16.5937C16.4205 43.9848 16.2783 43.9286 16.1669 43.8161C16.0556 43.7037 15.9999 43.56 15.9999 43.385V36.1875C15.9999 35.0254 16.402 34.0382 17.206 33.226C18.0224 32.4013 19.0058 31.9889 20.1562 31.9889H20.6757L22.624 24.1354C22.9085 22.9608 23.5517 21.9799 24.5537 21.1927C25.5556 20.3929 26.6627 19.9931 27.8749 19.9931H42.1249C43.3372 19.9931 44.4443 20.3929 45.4462 21.1927C46.4482 21.9799 47.0914 22.9608 47.3759 24.1354L49.3242 31.9889H49.8437C50.9941 31.9889 51.9713 32.4013 52.7753 33.226C53.5917 34.0382 53.9999 35.0254 53.9999 36.1875Z" fill="#BED200"/>
</svg>
