<svg width="70" height="70" viewBox="0 0 70 70" fill="none" xmlns="http://www.w3.org/2000/svg">
<path d="M68.5 35C68.5 53.5015 53.5015 68.5 35 68.5C16.4985 68.5 1.5 53.5015 1.5 35C1.5 16.4985 16.4985 1.5 35 1.5C53.5015 1.5 68.5 16.4985 68.5 35Z" stroke="#BED200" stroke-width="3"/>
<path d="M28.7768 28.8489C30.497 27.1293 32.5714 26.2695 35 26.2695C37.4285 26.2695 39.4777 27.1293 41.1473 28.8489C42.8675 30.518 43.7277 32.5664 43.7277 34.9942C43.7277 37.4219 42.8675 39.4956 41.1473 41.2152C39.4777 42.8843 37.4285 43.7188 35 43.7188C32.5714 43.7188 30.497 42.8843 28.7768 41.2152C27.1071 39.4956 26.2723 37.4219 26.2723 34.9942C26.2723 32.5664 27.1071 30.518 28.7768 28.8489ZM30.9777 39.0151C32.0907 40.1278 33.4315 40.6842 35 40.6842C36.5684 40.6842 37.9092 40.1278 39.0223 39.0151C40.1354 37.9024 40.6919 36.5621 40.6919 34.9942C40.6919 33.4262 40.1354 32.0859 39.0223 30.9732C37.9092 29.8605 36.5684 29.3041 35 29.3041C33.4315 29.3041 32.0907 29.8605 30.9777 30.9732C29.8646 32.0859 29.308 33.4262 29.308 34.9942C29.308 36.5621 29.8646 37.9024 30.9777 39.0151ZM45.4732 24.5245C45.878 24.8786 46.0803 25.3338 46.0803 25.8901C46.0803 26.4465 45.878 26.927 45.4732 27.3316C45.119 27.7362 44.6637 27.9385 44.1071 27.9385C43.5506 27.9385 43.0699 27.7362 42.6652 27.3316C42.2604 26.927 42.058 26.4465 42.058 25.8901C42.058 25.3338 42.2604 24.8786 42.6652 24.5245C43.0699 24.1199 43.5506 23.9176 44.1071 23.9176C44.6637 23.9176 45.119 24.1199 45.4732 24.5245ZM51.9241 28.0144C51.9747 29.38 52 31.7066 52 34.9942C52 38.2817 51.9747 40.6083 51.9241 41.9739C51.7723 45.0591 50.8363 47.4616 49.116 49.1812C47.4464 50.8503 45.0684 51.7354 41.9821 51.8366C40.616 51.9377 38.2887 51.9883 35 51.9883C31.7113 51.9883 29.3839 51.9377 28.0178 51.8366C24.9315 51.6848 22.5535 50.7744 20.8839 49.1054C20.2262 48.4984 19.6949 47.7904 19.2901 46.9811C18.8854 46.1719 18.5818 45.3879 18.3794 44.6292C18.2276 43.8706 18.1518 42.9855 18.1518 41.9739C18.0506 40.6083 18 38.2817 18 34.9942C18 31.7066 18.0506 29.3547 18.1518 27.9385C18.3035 24.9039 19.2143 22.552 20.8839 20.8829C22.5535 19.1633 24.9315 18.2276 28.0178 18.0759C29.3839 18.0253 31.7113 18 35 18C38.2887 18 40.616 18.0253 41.9821 18.0759C45.0684 18.2276 47.4464 19.1633 49.116 20.8829C50.8363 22.552 51.7723 24.9292 51.9241 28.0144ZM48.2812 45.0086C48.433 44.6039 48.5595 44.0982 48.6607 43.4912C48.7619 42.8337 48.8378 42.0751 48.8884 41.2152C48.939 40.3048 48.9643 39.5715 48.9643 39.0151C48.9643 38.4587 48.9643 37.6748 48.9643 36.6632C48.9643 35.6517 48.9643 35.0953 48.9643 34.9942C48.9643 34.8424 48.9643 34.2861 48.9643 33.3251C48.9643 32.3135 48.9643 31.5296 48.9643 30.9732C48.9643 30.4169 48.939 29.7088 48.8884 28.8489C48.8378 27.9385 48.7619 27.1799 48.6607 26.5729C48.5595 25.9154 48.433 25.3844 48.2812 24.9797C47.6741 23.4118 46.5863 22.3244 45.0178 21.7175C44.6131 21.5657 44.0818 21.4393 43.4241 21.3381C42.8169 21.237 42.058 21.1611 41.1473 21.1105C40.2872 21.06 39.5788 21.0347 39.0223 21.0347C38.5163 21.0347 37.7321 21.0347 36.6696 21.0347C35.6577 21.0347 35.1012 21.0347 35 21.0347C34.8988 21.0347 34.3422 21.0347 33.3303 21.0347C32.3184 21.0347 31.5342 21.0347 30.9777 21.0347C30.4211 21.0347 29.6875 21.06 28.7768 21.1105C27.9166 21.1611 27.1577 21.237 26.5 21.3381C25.8928 21.4393 25.3869 21.5657 24.9821 21.7175C23.4137 22.3244 22.3259 23.4118 21.7187 24.9797C21.5669 25.3844 21.4404 25.9154 21.3393 26.5729C21.2381 27.1799 21.1622 27.9385 21.1116 28.8489C21.061 29.7088 21.0357 30.4169 21.0357 30.9732C21.0357 31.479 21.0357 32.263 21.0357 33.3251C21.0357 34.3366 21.0357 34.893 21.0357 34.9942C21.0357 35.1965 21.0357 35.677 21.0357 36.4356C21.0357 37.1437 21.0357 37.7506 21.0357 38.2564C21.0357 38.7116 21.0357 39.3186 21.0357 40.0772C21.0863 40.8359 21.1369 41.4934 21.1875 42.0498C21.2381 42.5555 21.314 43.0866 21.4151 43.643C21.5163 44.1993 21.6175 44.6545 21.7187 45.0086C22.3765 46.5765 23.4643 47.6639 24.9821 48.2708C25.3869 48.4226 25.8928 48.549 26.5 48.6502C27.1577 48.7513 27.9166 48.8272 28.7768 48.8778C29.6875 48.9284 30.3958 48.9536 30.9018 48.9536C31.4583 48.9536 32.2425 48.9536 33.2544 48.9536C34.3169 48.9536 34.8988 48.9536 35 48.9536C35.1518 48.9536 35.7083 48.9536 36.6696 48.9536C37.6815 48.9536 38.4657 48.9536 39.0223 48.9536C39.5788 48.9536 40.2872 48.9284 41.1473 48.8778C42.058 48.8272 42.8169 48.7513 43.4241 48.6502C44.0818 48.549 44.6131 48.4226 45.0178 48.2708C46.5863 47.6133 47.6741 46.5259 48.2812 45.0086Z" fill="#BED200"/>
</svg>
