<svg width="70" height="70" viewBox="0 0 70 70" fill="none" xmlns="http://www.w3.org/2000/svg">
<circle cx="35" cy="35" r="33.5" stroke="#BED200" stroke-width="3"/>
<g clip-path="url(#clip0)">
<path d="M41.0711 28.4158C40.077 22.2965 37.7321 18 35.0034 18C32.2746 18 29.9298 22.2965 28.9356 28.4158H41.0711ZM28.4214 34.9942C28.4214 36.5154 28.5037 37.975 28.6477 39.3797H41.3522C41.4962 37.975 41.5785 36.5154 41.5785 34.9942C41.5785 33.4729 41.4962 32.0133 41.3522 30.6086H28.6477C28.5037 32.0133 28.4214 33.4729 28.4214 34.9942ZM50.6835 28.4158C48.7227 23.7629 44.7529 20.1654 39.8507 18.7127C41.5236 21.0288 42.6755 24.5167 43.2788 28.4158H50.6835ZM30.1492 18.7127C25.2538 20.1654 21.2772 23.7629 19.3232 28.4158H26.7279C27.3244 24.5167 28.4762 21.0288 30.1492 18.7127V18.7127ZM51.4172 30.6086H43.5531C43.6971 32.0476 43.7793 33.5209 43.7793 34.9942C43.7793 36.4674 43.6971 37.9407 43.5531 39.3797H51.4103C51.7874 37.975 51.9999 36.5154 51.9999 34.9942C51.9999 33.4729 51.7874 32.0133 51.4172 30.6086ZM26.2274 34.9942C26.2274 33.5209 26.3097 32.0476 26.4537 30.6086H18.5896C18.2193 32.0133 17.9999 33.4729 17.9999 34.9942C17.9999 36.5154 18.2193 37.975 18.5896 39.3797H26.4468C26.3097 37.9407 26.2274 36.4674 26.2274 34.9942V34.9942ZM28.9356 41.5725C29.9298 47.6918 32.2746 51.9883 35.0034 51.9883C37.7321 51.9883 40.077 47.6918 41.0711 41.5725H28.9356ZM39.8576 51.2757C44.7529 49.8229 48.7295 46.2254 50.6904 41.5725H43.2857C42.6823 45.4716 41.5305 48.9595 39.8576 51.2757ZM19.3232 41.5725C21.2841 46.2254 25.2538 49.8229 30.156 51.2757C28.4831 48.9595 27.3313 45.4716 26.7279 41.5725H19.3232V41.5725Z" fill="#BED200"/>
</g>
<defs>
<clipPath id="clip0">
<rect x="17.9999" y="17.9938" width="34" height="33.9883" fill="white"/>
</clipPath>
</defs>
</svg>
