<svg width="71" height="70" viewBox="0 0 71 70" fill="none" xmlns="http://www.w3.org/2000/svg">
<path d="M68.5241 35C68.5241 53.5011 53.5207 68.5 35.012 68.5C16.5034 68.5 1.5 53.5011 1.5 35C1.5 16.4989 16.5034 1.5 35.012 1.5C53.5207 1.5 68.5241 16.4989 68.5241 35Z" stroke="#BED200" stroke-width="3"/>
<path d="M38.6523 37.7826C39.2279 37.0654 39.6115 36.7067 39.8034 36.7067C39.9952 36.7067 40.7109 37.0288 41.9505 37.6728C43.2049 38.3169 43.8689 38.7048 43.9427 38.8365C43.9722 38.9097 43.987 39.0195 43.987 39.1658C43.987 39.6489 43.8615 40.2051 43.6107 40.8345C43.3746 41.4054 42.8507 41.8884 42.0391 42.2836C41.2274 42.6642 40.4748 42.8545 39.7813 42.8545C38.9401 42.8545 37.5382 42.4007 35.5755 41.4932C34.1293 40.8345 32.875 39.9709 31.8125 38.9024C30.75 37.8338 29.658 36.4799 28.5365 34.8405C27.474 33.2742 26.9501 31.8544 26.9648 30.5809V30.4053C27.0091 29.0733 27.5551 27.9169 28.6029 26.9362C28.957 26.6142 29.3407 26.4532 29.7539 26.4532C29.8424 26.4532 29.9753 26.4678 30.1523 26.4971C30.3294 26.5117 30.4696 26.519 30.5729 26.519C30.8533 26.519 31.0451 26.5703 31.1484 26.6727C31.2665 26.7606 31.3846 26.9582 31.5026 27.2655C31.6207 27.5583 31.8642 28.2023 32.2331 29.1977C32.602 30.1931 32.7865 30.742 32.7865 30.8444C32.7865 31.1518 32.5282 31.5763 32.0117 32.1179C31.51 32.6448 31.2591 32.9815 31.2591 33.1279C31.2591 33.2303 31.296 33.3401 31.3698 33.4572C31.8715 34.5258 32.6241 35.5284 33.6276 36.4652C34.454 37.241 35.5681 37.9802 36.9701 38.6828C37.1471 38.7853 37.3095 38.8365 37.457 38.8365C37.6784 38.8365 38.0768 38.4852 38.6523 37.7826ZM35.3099 48.3436C37.184 48.3436 38.977 47.9776 40.6888 47.2458C42.4154 46.5139 43.8984 45.5332 45.138 44.3036C46.3776 43.0741 47.3663 41.6103 48.1042 39.9124C48.842 38.1998 49.2109 36.414 49.2109 34.555C49.2109 32.6961 48.842 30.9176 48.1042 29.2197C47.3663 27.5071 46.3776 26.036 45.138 24.8064C43.8984 23.5769 42.4154 22.5962 40.6888 21.8643C38.977 21.1324 37.184 20.7665 35.3099 20.7665C33.4358 20.7665 31.6354 21.1324 29.9089 21.8643C28.1971 22.5962 26.7214 23.5769 25.4818 24.8064C24.2422 26.036 23.2535 27.5071 22.5156 29.2197C21.7778 30.9176 21.4089 32.6961 21.4089 34.555C21.4089 37.5264 22.2943 40.2197 24.0651 42.6349L22.3164 47.7507L27.6732 46.0601C30.0048 47.5824 32.5503 48.3436 35.3099 48.3436ZM28.8242 19.3174C30.8902 18.4391 33.0521 18 35.3099 18C37.5677 18 39.7222 18.4391 41.7734 19.3174C43.8394 20.1956 45.6176 21.3739 47.1081 22.8523C48.5985 24.3307 49.7865 26.0945 50.6719 28.1438C51.5573 30.1784 52 32.3155 52 34.555C52 36.7946 51.5573 38.939 50.6719 40.9882C49.7865 43.0228 48.5985 44.7793 47.1081 46.2577C45.6176 47.7361 43.8394 48.9144 41.7734 49.7927C39.7222 50.6709 37.5677 51.1101 35.3099 51.1101C32.4323 51.1101 29.7392 50.4221 27.2305 49.0462L18 51.9883L21.0104 43.096C19.4167 40.4905 18.6198 37.6435 18.6198 34.555C18.6198 32.3155 19.0625 30.1784 19.9479 28.1438C20.8333 26.0945 22.0213 24.3307 23.5117 22.8523C25.0022 21.3739 26.773 20.1956 28.8242 19.3174Z" fill="#BED200"/>
</svg>
