<svg xmlns="http://www.w3.org/2000/svg" width="209" height="209" viewBox="0 0 209 209"><g><g><g><path fill="#1a1a1a" d="M209 104.5c0 57.714-46.786 104.5-104.5 104.5S0 162.214 0 104.5 46.786 0 104.5 0 209 46.786 209 104.5z"/></g><g><path fill="#fff200" d="M24.68 113.695l12.213-12.339v9.82s40.54-48.724 73.78-56.656c0 0 5.287 20.774 4.532 31.224 0 0-20.019 21.656-21.656 23.418-1.636 1.763.378-8.31-1.007-16.493 0 0-43.688 31.98-55.272 56.656z"/></g><g><path fill="#8f9195" d="M38.65 104.246v-3.903s28.328-35.505 69.373-48.473c0 0-37.897 16.62-69.373 52.376z"/></g><g><path fill="#8f9195" d="M45.58 155.113V144.16s27.95-34.624 45.2-47.34v3.274c.125-.126-22.915 19.766-45.2 55.02z"/></g><g><path fill="#fff200" d="M93.92 151.587V118.35s23.67-44.193 73.402-61.819c0 0 8.183 49.732 0 64.21l18.382-8.183v6.421l-51.117 23.418s16.493-37.393 14.479-47.843c-.126.126-30.091 19.389-55.146 57.034z"/></g><g><path fill="#8f9195" d="M101.86 157.758l1.007-12.842s29.336-37.142 42.178-44.696l-1.637 5.666s-28.706 24.173-41.548 51.872z"/></g><g><path fill="#fff200" d="M104.244 191.628C56.652 191.628 18 152.976 18 105.384S56.652 19.14 104.244 19.14s86.244 38.652 86.244 86.244-38.778 86.244-86.244 86.244zm0-162.793c-42.304 0-76.675 34.371-76.675 76.675 0 42.303 34.371 76.675 76.675 76.675 42.304 0 76.675-34.372 76.675-76.675 0-42.304-34.497-76.675-76.675-76.675z"/></g></g></g></svg>